<svg width="4948" height="1024" viewBox="0 0 4948 1024" fill="none" xmlns="http://www.w3.org/2000/svg">
<g clip-path="url(#clip0_1174_1785)">
<rect width="4948" height="1024" fill="url(#paint0_linear_1174_1785)"/>
<path d="M469 -290V1091H496V-290H469Z" fill="#4B94DB"/>
<path d="M5036 356L-23 356L-23 383L5036 383L5036 356Z" fill="#4B94DB"/>
<path d="M1048 -290V1091H1075V-290H1048Z" fill="#4B94DB"/>
<path d="M1627 -290V1091H1654V-290H1627Z" fill="#4B94DB"/>
<path d="M2206 -290V1091H2233V-290H2206Z" fill="#4B94DB"/>
<path d="M2785 -290V1091H2812V-290H2785Z" fill="#4B94DB"/>
<path d="M3364 -290V1091H3391V-290H3364Z" fill="#4B94DB"/>
<path d="M3943 -290V1091H3970V-290H3943Z" fill="#4B94DB"/>
<path d="M4522 -290V1091H4549V-290H4522Z" fill="#4B94DB"/>
<path d="M5218 941L-47 941L-47 1024L5218 1024L5218 941Z" fill="white"/>
<path opacity="0.25" d="M3840.67 1033.65L4206.94 -117.522L4387.71 -175.014L4399.77 830.678C4399.77 830.678 4251.78 990.869 4072.54 1062.36C3893.3 1133.86 3840.67 1033.65 3840.67 1033.65Z" fill="url(#paint1_linear_1174_1785)"/>
<path opacity="0.25" d="M4490.15 741.592L4376.71 -202.211L4404.77 -209.489L4603.16 711.062L4490.15 741.592Z" fill="url(#paint2_linear_1174_1785)"/>
<rect x="820" y="322" width="25" height="616" rx="5" fill="#F6C98A"/>
<rect x="792" y="907" width="81" height="31" rx="5" fill="#F6C98A"/>
<rect x="1287" y="907" width="81" height="31" rx="5" fill="#F6C98A"/>
<rect x="1315" y="411" width="25" height="470" transform="rotate(90 1315 411)" fill="#B56F39"/>
<rect x="1315" y="593" width="25" height="470" transform="rotate(90 1315 593)" fill="#B56F39"/>
<rect x="1315" y="775" width="25" height="470" transform="rotate(90 1315 775)" fill="#B56F39"/>
<rect x="1315" y="405" width="25" height="470" transform="rotate(90 1315 405)" fill="#F6C98A"/>
<rect x="1315" y="587" width="25" height="470" transform="rotate(90 1315 587)" fill="#F6C98A"/>
<rect x="1315" y="769" width="25" height="470" transform="rotate(90 1315 769)" fill="#F6C98A"/>
<rect x="1315" y="322" width="25" height="616" rx="5" fill="#F6C98A"/>
<rect x="845" y="897" width="10" height="25" transform="rotate(90 845 897)" fill="#B56F39"/>
<rect x="1340" y="897" width="10" height="25" transform="rotate(90 1340 897)" fill="#B56F39"/>
<rect x="2185" y="325" width="25" height="616" rx="5" fill="#F6C98A"/>
<rect x="2157" y="910" width="81" height="31" rx="5" fill="#F6C98A"/>
<rect x="2425" y="910" width="81" height="31" rx="5" fill="#F6C98A"/>
<rect x="2467" y="414" width="25" height="257" transform="rotate(90 2467 414)" fill="#B56F39"/>
<rect x="2467" y="596" width="25" height="257" transform="rotate(90 2467 596)" fill="#B56F39"/>
<rect x="2467" y="778" width="25" height="257" transform="rotate(90 2467 778)" fill="#B56F39"/>
<rect x="2467" y="408" width="25" height="257" transform="rotate(90 2467 408)" fill="#F6C98A"/>
<rect x="2467" y="590" width="25" height="257" transform="rotate(90 2467 590)" fill="#F6C98A"/>
<rect x="2467" y="772" width="25" height="257" transform="rotate(90 2467 772)" fill="#F6C98A"/>
<rect x="2453" y="325" width="25" height="616" rx="5" fill="#F6C98A"/>
<rect x="2210" y="900" width="10" height="25" transform="rotate(90 2210 900)" fill="#B56F39"/>
<rect x="2478" y="900" width="10" height="25" transform="rotate(90 2478 900)" fill="#B56F39"/>
<rect x="745" y="684" width="64.0001" height="430" rx="5" transform="rotate(90 745 684)" fill="#B56F39"/>
<rect x="745" y="669" width="64.0001" height="430" rx="5" transform="rotate(90 745 669)" fill="#F6C98A"/>
<rect x="315" y="684" width="25" height="254" rx="5" fill="#F6C98A"/>
<rect x="720" y="684" width="25" height="254" rx="5" fill="#F6C98A"/>
<rect width="25" height="616" rx="5" transform="matrix(-1 0 0 1 3639 325)" fill="#F6C98A"/>
<rect width="81" height="31" rx="5" transform="matrix(-1 0 0 1 3667 910)" fill="#F6C98A"/>
<rect width="81" height="31" rx="5" transform="matrix(-1 0 0 1 3172 910)" fill="#F6C98A"/>
<rect width="25" height="470" transform="matrix(4.37114e-08 1 1 -4.37114e-08 3144 414)" fill="#B56F39"/>
<rect width="25" height="470" transform="matrix(4.37114e-08 1 1 -4.37114e-08 3144 596)" fill="#B56F39"/>
<rect width="25" height="470" transform="matrix(4.37114e-08 1 1 -4.37114e-08 3144 778)" fill="#B56F39"/>
<rect width="25" height="470" transform="matrix(4.37114e-08 1 1 -4.37114e-08 3144 408)" fill="#F6C98A"/>
<rect width="25" height="470" transform="matrix(4.37114e-08 1 1 -4.37114e-08 3144 590)" fill="#F6C98A"/>
<rect width="25" height="470" transform="matrix(4.37114e-08 1 1 -4.37114e-08 3144 772)" fill="#F6C98A"/>
<rect width="25" height="616" rx="5" transform="matrix(-1 0 0 1 3144 325)" fill="#F6C98A"/>
<rect width="10" height="25" transform="matrix(4.37114e-08 1 1 -4.37114e-08 3614 900)" fill="#B56F39"/>
<rect width="10" height="25" transform="matrix(4.37114e-08 1 1 -4.37114e-08 3119 900)" fill="#B56F39"/>
<rect width="64.0001" height="430" rx="5" transform="matrix(1.56928e-08 1 1 -1.21756e-07 3714 687)" fill="#B56F39"/>
<rect width="64.0001" height="430" rx="5" transform="matrix(1.56928e-08 1 1 -1.21756e-07 3714 672)" fill="#F6C98A"/>
<rect width="25" height="254" rx="5" transform="matrix(-1 0 0 1 4144 687)" fill="#F6C98A"/>
<rect width="25" height="254" rx="5" transform="matrix(-1 0 0 1 3739 687)" fill="#F6C98A"/>
<rect x="2121" y="772" width="64.0001" height="430" rx="5" transform="rotate(90 2121 772)" fill="#B56F39"/>
<rect x="2121" y="757" width="64.0001" height="430" rx="5" transform="rotate(90 2121 757)" fill="#F6C98A"/>
<rect x="1691" y="772" width="25" height="169" rx="5" fill="#F6C98A"/>
<rect x="2096" y="757" width="25" height="184" rx="5" fill="#F6C98A"/>
<rect width="25" height="616" rx="5" transform="matrix(-1 0 0 1 4907 322)" fill="#F6C98A"/>
<rect width="81" height="31" rx="5" transform="matrix(-1 0 0 1 4935 907)" fill="#F6C98A"/>
<rect width="81" height="31" rx="5" transform="matrix(-1 0 0 1 4667 907)" fill="#F6C98A"/>
<rect width="25" height="257" transform="matrix(2.39018e-08 1 1 -7.99391e-08 4625 411)" fill="#B56F39"/>
<rect width="25" height="257" transform="matrix(2.39018e-08 1 1 -7.99391e-08 4625 593)" fill="#B56F39"/>
<rect width="25" height="257" transform="matrix(2.39018e-08 1 1 -7.99391e-08 4625 775)" fill="#B56F39"/>
<rect width="25" height="257" transform="matrix(2.39018e-08 1 1 -7.99391e-08 4625 405)" fill="#F6C98A"/>
<rect width="25" height="257" transform="matrix(2.39018e-08 1 1 -7.99391e-08 4625 587)" fill="#F6C98A"/>
<rect width="25" height="257" transform="matrix(2.39018e-08 1 1 -7.99391e-08 4625 769)" fill="#F6C98A"/>
<rect width="25" height="616" rx="5" transform="matrix(-1 0 0 1 4639 322)" fill="#F6C98A"/>
<rect width="10" height="25" transform="matrix(4.37114e-08 1 1 -4.37114e-08 4882 897)" fill="#B56F39"/>
<rect width="10" height="25" transform="matrix(4.37114e-08 1 1 -4.37114e-08 4614 897)" fill="#B56F39"/>
<path opacity="0.25" d="M347.672 1027.65L713.942 -123.522L894.714 -181.014L906.767 824.678C906.767 824.678 758.785 984.869 579.543 1056.36C400.302 1127.86 347.672 1027.65 347.672 1027.65Z" fill="url(#paint3_linear_1174_1785)"/>
<path opacity="0.25" d="M997.147 735.592L883.714 -208.211L911.766 -215.489L1110.16 705.062L997.147 735.592Z" fill="url(#paint4_linear_1174_1785)"/>
<path opacity="0.25" d="M3018.53 978.647L2652.26 -172.522L2471.49 -230.014L2459.43 775.678C2459.43 775.678 2607.42 935.869 2786.66 1007.36C2965.9 1078.86 3018.53 978.647 3018.53 978.647Z" fill="url(#paint5_linear_1174_1785)"/>
<path opacity="0.25" d="M2369.05 686.592L2482.49 -257.211L2454.44 -264.489L2256.04 656.062L2369.05 686.592Z" fill="url(#paint6_linear_1174_1785)"/>
<path d="M41.5 26C51.7172 26 60 34.2828 60 44.5C60 54.7172 51.7172 63 41.5 63C31.2828 63 23 54.7172 23 44.5C23 34.2828 31.2828 26 41.5 26ZM49.0156 35.25C48.1071 33.6604 46.2318 33.6223 44.6582 34.54L31.5918 42.1611C30.6437 42.7141 30.0706 43.6717 29.9639 44.6934C29.8005 45.9829 30.3988 47.3054 31.583 47.9961L44.6494 55.6172C46.2231 56.535 48.1071 56.4961 49.0156 54.9062C49.924 53.3165 49.0286 51.4306 47.4551 50.5127L40.9219 46.7021L38.1377 45.0781L40.9219 43.4551L47.4551 39.6445C49.0288 38.7266 49.9242 36.8398 49.0156 35.25Z" fill="white"/>
<path d="M4918.58 14.5605C4918.58 14.5605 4927.32 27.3659 4927.32 31.7383C4927.32 36.1102 4923.88 38.5101 4922.62 38.8584C4921.37 39.2064 4917.65 39.3581 4915.84 38.8584C4914.04 38.3585 4910.14 36.1102 4910.14 31.7383C4910.14 27.3659 4918.58 14.5605 4918.58 14.5605Z" fill="#4B94DB"/>
<path d="M4932.97 17.9507C4932.97 17.9998 4932.53 33.4558 4929.97 36.9899C4927.4 40.5294 4923.21 40.4555 4921.99 39.9979C4921.44 39.7914 4920.5 39.2582 4919.54 38.602L4925 31.0705C4925.41 30.5121 4925.28 29.7312 4924.72 29.3261C4924.17 28.9211 4923.38 29.0449 4922.98 29.6034L4917.55 37.0827C4917.13 36.7136 4916.77 36.3509 4916.5 36.0173C4915.33 34.5512 4913.5 30.4444 4916.06 26.9049C4918.63 23.3735 4932.91 17.9754 4932.97 17.9507Z" fill="white"/>
</g>
<defs>
<linearGradient id="paint0_linear_1174_1785" x1="2676" y1="-897" x2="2676" y2="1655.5" gradientUnits="userSpaceOnUse">
<stop offset="0.294576" stop-color="#AFDBFF"/>
<stop offset="0.858336" stop-color="white"/>
</linearGradient>
<linearGradient id="paint1_linear_1174_1785" x1="3765.58" y1="194.976" x2="4288.77" y2="933.899" gradientUnits="userSpaceOnUse">
<stop offset="0.572115" stop-color="#FFF59A"/>
<stop offset="1" stop-color="#FFFBD6" stop-opacity="0"/>
</linearGradient>
<linearGradient id="paint2_linear_1174_1785" x1="4075.48" y1="92.6048" x2="4642.8" y2="672.266" gradientUnits="userSpaceOnUse">
<stop offset="0.572115" stop-color="#FFF59A"/>
<stop offset="1" stop-color="#FFFBD6" stop-opacity="0"/>
</linearGradient>
<linearGradient id="paint3_linear_1174_1785" x1="272.583" y1="188.976" x2="795.766" y2="927.899" gradientUnits="userSpaceOnUse">
<stop offset="0.572115" stop-color="#FFF59A"/>
<stop offset="1" stop-color="#FFFBD6" stop-opacity="0"/>
</linearGradient>
<linearGradient id="paint4_linear_1174_1785" x1="582.483" y1="86.6048" x2="1149.8" y2="666.266" gradientUnits="userSpaceOnUse">
<stop offset="0.572115" stop-color="#FFF59A"/>
<stop offset="1" stop-color="#FFFBD6" stop-opacity="0"/>
</linearGradient>
<linearGradient id="paint5_linear_1174_1785" x1="3093.62" y1="139.976" x2="2570.44" y2="878.899" gradientUnits="userSpaceOnUse">
<stop offset="0.572115" stop-color="#FFF59A"/>
<stop offset="1" stop-color="#FFFBD6" stop-opacity="0"/>
</linearGradient>
<linearGradient id="paint6_linear_1174_1785" x1="2783.72" y1="37.6048" x2="2216.4" y2="617.266" gradientUnits="userSpaceOnUse">
<stop offset="0.572115" stop-color="#FFF59A"/>
<stop offset="1" stop-color="#FFFBD6" stop-opacity="0"/>
</linearGradient>
<clipPath id="clip0_1174_1785">
<rect width="4948" height="1024" fill="white"/>
</clipPath>
</defs>
</svg>
