<svg width="7540" height="1024" viewBox="0 0 7540 1024" fill="none" xmlns="http://www.w3.org/2000/svg">
<g clip-path="url(#clip0_683_126)">
<rect width="7540" height="1024" fill="url(#paint0_linear_683_126)"/>
<path d="M2132.47 20.7297C2122.92 57.6477 2163.13 64 2163.13 64H2348.5C2348.5 64 2375.09 38.1248 2358.62 7.41264C2342.15 -23.2995 2292.75 -8.32288 2292.75 -8.32288C2292.75 -8.32288 2295.77 -64.0003 2235.2 -64C2174.62 -63.9997 2178.54 -1.66313 2178.54 -1.66313C2178.54 -1.66313 2142.02 -16.1882 2132.47 20.7297Z" fill="white"/>
<path d="M3214.76 44.2468C3272.46 49.074 3259.36 113.663 3259.36 113.663C3259.36 113.663 3311.77 96.8831 3331.77 128.144C3351.77 159.405 3323.95 184 3323.95 184H3058.68C3058.68 184 3047.88 164.232 3063.28 151.59C3078.68 138.947 3098.68 151.59 3098.68 151.59C3098.68 151.59 3079.14 124.007 3107.41 101.94C3135.69 79.8743 3152.24 106.997 3152.24 106.997C3152.24 106.997 3157.07 39.4197 3214.76 44.2468Z" fill="white"/>
<path d="M3773.07 280.403C3753.1 357.7 3837.17 371 3837.17 371H4224.6C4224.6 371 4280.17 316.824 4245.76 252.52C4211.34 188.217 4108.09 219.574 4108.09 219.574C4108.09 219.574 4114.4 102.999 3987.78 103C3861.16 103.001 3869.37 233.518 3869.37 233.518C3869.37 233.518 3793.03 203.106 3773.07 280.403Z" fill="white"/>
<path d="M5643.23 90.4549C5536.77 99.3506 5560.94 218.379 5560.94 218.379C5560.94 218.379 5464.24 187.456 5427.35 245.065C5390.45 302.675 5441.77 348 5441.77 348H5931.2C5931.2 348 5951.14 311.57 5922.72 288.273C5894.31 264.975 5857.41 288.273 5857.41 288.273C5857.41 288.273 5893.46 237.441 5841.29 196.776C5789.12 156.111 5758.59 206.094 5758.59 206.094C5758.59 206.094 5749.68 81.5591 5643.23 90.4549Z" fill="white"/>
<path d="M7260.51 90.2574C7320.65 95.2914 7306.99 162.648 7306.99 162.648C7306.99 162.648 7361.62 145.149 7382.46 177.75C7403.3 210.351 7374.32 236 7374.32 236H7097.84C7097.84 236 7086.58 215.385 7102.63 202.201C7118.68 189.017 7139.53 202.201 7139.53 202.201C7139.53 202.201 7119.16 173.435 7148.63 150.424C7178.1 127.412 7195.35 155.697 7195.35 155.697C7195.35 155.697 7200.38 85.2234 7260.51 90.2574Z" fill="white"/>
<path d="M966.35 -148.321C1125.02 -135.047 1088.98 42.5728 1088.98 42.5728C1088.98 42.5728 1233.11 -3.57153 1288.11 82.3961C1343.1 168.364 1266.62 236 1266.62 236H537.128C537.128 236 507.417 181.638 549.77 146.872C592.124 112.105 647.12 146.872 647.12 146.872C647.12 146.872 593.388 71.018 671.141 10.3362C748.894 -50.3457 794.408 24.2415 794.408 24.2415C794.408 24.2415 807.683 -161.596 966.35 -148.321Z" fill="white"/>
<path d="M373.409 260.897C389.25 294.147 347.547 307 347.547 307H128.362C128.362 307 98.2972 282.272 128.362 253.772C158.427 225.272 187.038 247.485 187.038 247.485C187.038 247.485 197.059 193 257.351 193C317.643 193 317.481 247.485 317.481 247.485C317.481 247.485 357.569 227.647 373.409 260.897Z" fill="white"/>
<path d="M6712.96 32.9118C6730.79 78.4118 6683.84 96 6683.84 96H6437.05C6437.05 96 6403.19 62.1618 6437.05 23.1618C6470.9 -15.8382 6503.11 14.5588 6503.11 14.5588C6503.11 14.5588 6514.4 -59.9999 6582.28 -60C6650.17 -60.0001 6649.98 14.5588 6649.98 14.5588C6649.98 14.5588 6695.12 -12.5882 6712.96 32.9118Z" fill="white"/>
</g>
<defs>
<linearGradient id="paint0_linear_683_126" x1="3770" y1="0" x2="3764.58" y2="1024" gradientUnits="userSpaceOnUse">
<stop stop-color="#AFDBFF"/>
<stop offset="1" stop-color="#D8EEFF"/>
</linearGradient>
<clipPath id="clip0_683_126">
<rect width="7540" height="1024" fill="white"/>
</clipPath>
</defs>
</svg>
