<svg width="7540" height="1024" viewBox="0 0 7540 1024" fill="none" xmlns="http://www.w3.org/2000/svg">
    <g clip-path="url(#clip0_683_126)">
    <rect width="7540" height="1024" fill="url(#paint0_linear_683_126)"/>
    <path d="M1958.47 391.73C1948.92 428.648 1989.13 435 1989.13 435H2174.5C2174.5 435 2201.09 409.125 2184.62 378.413C2168.15 347.701 2118.75 362.677 2118.75 362.677C2118.75 362.677 2121.77 307 2061.2 307C2000.62 307 2004.54 369.337 2004.54 369.337C2004.54 369.337 1968.02 354.812 1958.47 391.73Z" fill="white"/>
    <path d="M3188.76 435.247C3246.46 440.074 3233.36 504.663 3233.36 504.663C3233.36 504.663 3285.77 487.883 3305.77 519.144C3325.77 550.405 3297.95 575 3297.95 575H3032.68C3032.68 575 3021.88 555.232 3037.28 542.59C3052.68 529.947 3072.68 542.59 3072.68 542.59C3072.68 542.59 3053.14 515.007 3081.41 492.94C3109.69 470.874 3126.24 497.997 3126.24 497.997C3126.24 497.997 3131.07 430.42 3188.76 435.247Z" fill="white"/>
    <path d="M3773.07 280.403C3753.1 357.7 3837.17 371 3837.17 371H4224.6C4224.6 371 4280.17 316.824 4245.76 252.52C4211.34 188.217 4108.09 219.574 4108.09 219.574C4108.09 219.574 4114.4 102.999 3987.78 103C3861.16 103.001 3869.37 233.518 3869.37 233.518C3869.37 233.518 3793.03 203.106 3773.07 280.403Z" fill="white"/>
    <path d="M7145.23 516.455C7038.77 525.351 7062.94 644.379 7062.94 644.379C7062.94 644.379 6966.24 613.456 6929.35 671.065C6892.45 728.675 6943.77 774 6943.77 774H7433.2C7433.2 774 7453.14 737.57 7424.72 714.273C7396.31 690.975 7359.41 714.273 7359.41 714.273C7359.41 714.273 7395.46 663.441 7343.29 622.776C7291.12 582.111 7260.59 632.094 7260.59 632.094C7260.59 632.094 7251.68 507.559 7145.23 516.455Z" fill="white"/>
    <path d="M5813.51 429.257C5873.65 434.291 5859.99 501.648 5859.99 501.648C5859.99 501.648 5914.62 484.149 5935.46 516.75C5956.3 549.351 5927.32 575 5927.32 575H5650.84C5650.84 575 5639.58 554.385 5655.63 541.201C5671.68 528.017 5692.53 541.201 5692.53 541.201C5692.53 541.201 5672.16 512.435 5701.63 489.424C5731.1 466.412 5748.35 494.697 5748.35 494.697C5748.35 494.697 5753.38 424.223 5813.51 429.257Z" fill="white"/>
    <path d="M966.35 -148.321C1125.02 -135.047 1088.98 42.5728 1088.98 42.5728C1088.98 42.5728 1233.11 -3.57153 1288.11 82.3961C1343.1 168.364 1266.62 236 1266.62 236H537.128C537.128 236 507.417 181.638 549.77 146.872C592.124 112.105 647.12 146.872 647.12 146.872C647.12 146.872 593.388 71.018 671.141 10.3362C748.894 -50.3457 794.408 24.2415 794.408 24.2415C794.408 24.2415 807.683 -161.596 966.35 -148.321Z" fill="white"/>
    <path d="M28.5 23C34.299 23 39 27.701 39 33.5C39 39.299 34.299 44 28.5 44C22.701 44 18 39.299 18 33.5C18 27.701 22.701 23 28.5 23ZM31.1426 29.0273C30.6056 28.3966 29.6582 28.3205 29.0273 28.8574L24.0273 33.1133C23.6803 33.4088 23.4869 33.8462 23.501 34.3018C23.5152 34.7576 23.7356 35.1827 24.1006 35.4561L29.1006 39.2002C29.7635 39.6967 30.7035 39.5622 31.2002 38.8994C31.6967 38.2365 31.5622 37.2965 30.8994 36.7998L27.4023 34.1797L30.9727 31.1426C31.6034 30.6056 31.6795 29.6582 31.1426 29.0273Z" fill="white"/>
    <path d="M523.409 712.897C539.25 746.147 497.547 759 497.547 759H278.362C278.362 759 248.297 734.272 278.362 705.772C308.427 677.272 337.038 699.485 337.038 699.485C337.038 699.485 347.059 645 407.351 645C467.643 645 467.481 699.485 467.481 699.485C467.481 699.485 507.569 679.647 523.409 712.897Z" fill="white"/>
    <path d="M6712.96 32.9118C6730.79 78.4118 6683.84 96 6683.84 96H6437.05C6437.05 96 6403.19 62.1618 6437.05 23.1618C6470.9 -15.8382 6503.11 14.5588 6503.11 14.5588C6503.11 14.5588 6514.4 -59.9999 6582.28 -60C6650.17 -60.0001 6649.98 14.5588 6649.98 14.5588C6649.98 14.5588 6695.12 -12.5882 6712.96 32.9118Z" fill="white"/>
    </g>
    <defs>
        <linearGradient id="paint0_linear_683_126" x1="3770" y1="0" x2="3764.58" y2="1024" gradientUnits="userSpaceOnUse">
            <stop stop-color="#AFDBFF"/>
            <stop offset="1" stop-color="#D8EEFF"/>
        </linearGradient>
        <clipPath id="clip0_683_126">
            <rect width="7540" height="1024" fill="white"/>
        </clipPath>
    </defs>
</svg>
